<svg xmlns="http://www.w3.org/2000/svg" width="41" height="41" viewBox="0 0 41 41">
    <g id="Group_750" data-name="Group 750" transform="translate(83 -918)">
      <rect id="Rectangle_6" data-name="Rectangle 6" width="41" height="41" transform="translate(-83 918)" fill="none"/>
      <g id="camping-tent" transform="translate(-83 924.833)">
        <g id="Group_18" data-name="Group 18">
          <path id="Path_14" data-name="Path 14" d="M241.831,97.725a1.3,1.3,0,0,0-.927-.478h-8.223c-.292,0-.3.227-.157.489l14.537,26.1a.626.626,0,0,0,.766.19l7.929-2.591a.461.461,0,0,0,.225-.686Z" transform="translate(-215.053 -97.247)"/>
          <path id="Path_15" data-name="Path 15" d="M7.07,130.123l7.014-15.479V129.62c0,1.34,1.374,1.263,1.666,1.263h13.67c.292,0,.41-.486.266-.747l-14.123-25.88c-.144-.262-.378-.262-.523,0l-3.537,6.42a2.259,2.259,0,0,1-.723.739c-3.577,2.052-8.4,4.792-10.54,5.762a.494.494,0,0,0-.053.816,24.448,24.448,0,0,1,2.419,2.9,15.6,15.6,0,0,1,1.407,2.481,1.222,1.222,0,0,1-.044.971L.933,130.136c-.143.262-.024.747.268.747H6.3C6.595,130.883,6.938,130.393,7.07,130.123ZM2.991,118.2a.209.209,0,0,1,.039-.364c1.505-.815,8.626-4.678,10.606-5.93.149-.095.2-.044.124.117l-6.75,13.712c-.079.161-.17.148-.209-.029C6.548,124.546,5.518,120.509,2.991,118.2Z" transform="translate(-0.001 -103.551)"/>
        </g>
      </g>
    </g>
  </svg>