<svg height="60px" width="60px" version="1.1" id="Layer_1" xmlns="http://www.w3.org/2000/svg" xmlns:xlink="http://www.w3.org/1999/xlink" viewBox="-95.95 -95.95 671.67 671.67" xml:space="preserve" fill="#000000"><g id="SVGRepo_bgCarrier" stroke-width="0"></g><g id="SVGRepo_tracerCarrier" stroke-linecap="round" stroke-linejoin="round"></g><g id="SVGRepo_iconCarrier"> <g> <path style="fill:#92BEE2;" d="M73.571,447.903L73.571,447.903l-49.584-0.016c-6.472,0-12.528-2.536-17.08-7.144 c-4.536-4.608-7-10.712-6.904-17.192c0.192-13.04,10.96-23.648,23.992-23.648h72.008c2.16,0,4.176-0.848,5.696-2.384 c1.512-1.536,2.328-3.576,2.296-5.736c-0.056-4.36-3.648-7.896-7.992-7.896h-8.232c-13.232,0-24-10.768-24-24s10.768-24,24-24h48 c4.424,0,8,3.584,8,8s-3.576,8-8,8h-48c-4.416,0-8,3.592-8,8s3.584,8,8,8h8.232c13.04,0,23.808,10.608,23.992,23.656 c0.096,6.496-2.352,12.6-6.896,17.208c-4.544,4.616-10.616,7.16-17.096,7.16H23.995c-4.344,0-7.928,3.536-7.992,7.88 c-0.032,2.152,0.792,4.184,2.304,5.72c1.512,1.536,3.536,2.376,5.68,2.376l49.576,0.016c4.424,0,8,3.584,8,8 C81.571,444.327,77.979,447.903,73.571,447.903z"></path> <path style="fill:#92BEE2;" d="M159.771,399.887h-16c-4.424,0-8-3.584-8-8s3.576-8,8-8h16c4.424,0,8,3.584,8,8 S164.195,399.887,159.771,399.887z"></path> <path style="fill:#92BEE2;" d="M135.771,447.887h-32c-4.424,0-8-3.584-8-8s3.576-8,8-8h32c4.424,0,8,3.584,8,8 S140.195,447.887,135.771,447.887z"></path> <path style="fill:#92BEE2;" d="M406.211,447.903c-4.416,0-8-3.576-8-8s3.576-8,8-8l49.576-0.016c2.152,0,4.168-0.84,5.68-2.376 s2.336-3.568,2.304-5.728c-0.064-4.336-3.648-7.872-7.992-7.872h-72.008c-6.48,0-12.544-2.536-17.096-7.16 c-4.544-4.616-6.992-10.72-6.896-17.192c0.184-13.064,10.952-23.672,23.992-23.672h8.232c4.416,0,8-3.592,8-8s-3.584-8-8-8h-48 c-4.424,0-8-3.584-8-8s3.576-8,8-8h48c13.232,0,24,10.768,24,24s-10.768,24-24,24h-8.232c-4.344,0-7.928,3.536-7.992,7.88 c-0.032,2.184,0.784,4.216,2.296,5.76c1.512,1.536,3.536,2.384,5.696,2.384h72.008c13.032,0,23.8,10.608,23.992,23.64 c0.096,6.488-2.368,12.592-6.904,17.2c-4.552,4.608-10.608,7.136-17.08,7.136L406.211,447.903L406.211,447.903z"></path> <path style="fill:#92BEE2;" d="M335.771,399.887h-16c-4.424,0-8-3.584-8-8s3.576-8,8-8h16c4.424,0,8,3.584,8,8 S340.195,399.887,335.771,399.887z"></path> <path style="fill:#92BEE2;" d="M375.771,447.887h-32c-4.424,0-8-3.584-8-8s3.576-8,8-8h32c4.424,0,8,3.584,8,8 S380.195,447.887,375.771,447.887z"></path> </g> <path style="fill:#1C77C3;" d="M255.771,471.887h-32c-8.84,0-16-7.16-16-16v-48h64v48 C271.771,464.727,264.611,471.887,255.771,471.887z"></path> <g> <path style="fill:#4992CF;" d="M295.771,415.887h-112c-4.424,0-8-3.584-8-8s3.576-8,8-8h112c4.424,0,8,3.584,8,8 S300.195,415.887,295.771,415.887z"></path> <path style="fill:#4992CF;" d="M199.779,415.887c-0.328,0-0.664-0.016-1-0.064c-4.384-0.544-7.496-4.544-6.944-8.928l8-64 c0.544-4.376,4.512-7.504,8.928-6.944c4.384,0.544,7.496,4.544,6.944,8.928l-8,64C207.203,412.927,203.755,415.887,199.779,415.887 z"></path> <path style="fill:#4992CF;" d="M279.763,415.887c-3.976,0-7.424-2.96-7.928-7.008l-8-64c-0.544-4.384,2.56-8.384,6.944-8.928 c4.392-0.552,8.376,2.568,8.928,6.944l8,64c0.544,4.384-2.56,8.384-6.944,8.928C280.427,415.871,280.091,415.887,279.763,415.887z"></path> </g> <g> <path style="fill:#E65039;" d="M239.771,375.887c-4.424,0-8-3.584-8-8v-24c0-4.416,3.576-8,8-8c4.424,0,8,3.584,8,8v24 C247.771,372.303,244.195,375.887,239.771,375.887z"></path> <path style="fill:#E65039;" d="M247.771,375.887h-16c-4.424,0-8-3.584-8-8s3.576-8,8-8h16c4.424,0,8,3.584,8,8 S252.195,375.887,247.771,375.887z"></path> </g> <path style="fill:#FDC567;" d="M399.771,167.887c0,88.368-71.632,176-160,176s-160-87.632-160-176s71.632-160,160-160 S399.771,79.519,399.771,167.887z"></path> <path style="fill:#FDD185;" d="M239.771,31.887c84.64,0,153.744,65.76,159.44,148.952c0.336-4.312,0.56-8.624,0.56-12.952 c0-88.368-71.632-160-160-160s-160,71.632-160,160c0,4.328,0.224,8.64,0.56,12.952C86.027,97.647,155.131,31.887,239.771,31.887z"></path> <g> <path style="fill:#4992CF;" d="M287.779,439.887c-2.584,0-5.128-1.248-6.664-3.56l-16-24c-2.456-3.672-1.464-8.648,2.216-11.096 c3.688-2.464,8.648-1.456,11.096,2.216l16,24c2.456,3.672,1.464,8.648-2.216,11.096 C290.843,439.455,289.299,439.887,287.779,439.887z"></path> <path style="fill:#4992CF;" d="M191.763,439.887c-1.52,0-3.064-0.432-4.432-1.344c-3.68-2.448-4.672-7.416-2.216-11.096l16-24 c2.448-3.672,7.4-4.68,11.096-2.216c3.68,2.448,4.672,7.416,2.216,11.096l-16,24C196.891,438.639,194.347,439.887,191.763,439.887z "></path> <path style="fill:#4992CF;" d="M239.771,439.887c-4.424,0-8-3.584-8-8v-24c0-4.416,3.576-8,8-8c4.424,0,8,3.584,8,8v24 C247.771,436.303,244.195,439.887,239.771,439.887z"></path> </g> <path style="fill:#E65039;" d="M239.771,7.887c-35.344,0-104,75.216-104,168s68.656,168,104,168s104-75.216,104-168 S275.115,7.887,239.771,7.887z"></path> <path style="fill:#EB7361;" d="M239.771,31.887c33.8,0,97.904,68.84,103.456,156c0.256-3.976,0.544-7.952,0.544-12 c0-92.784-68.656-168-104-168s-104,75.216-104,168c0,4.048,0.288,8.024,0.544,12C141.867,100.727,205.971,31.887,239.771,31.887z"></path> </g></svg>