<svg fill="#ffa500" version="1.1" id="Capa_1" xmlns="http://www.w3.org/2000/svg" xmlns:xlink="http://www.w3.org/1999/xlink" width="25px" height="25px" viewBox="0 0 69.86 69.86" xml:space="preserve" stroke="#ffa500"><g id="SVGRepo_bgCarrier" stroke-width="0"></g><g id="SVGRepo_tracerCarrier" stroke-linecap="round" stroke-linejoin="round"></g><g id="SVGRepo_iconCarrier"> <g> <path d="M69.004,54.136v-1.924h-2.061v1.924h-1.889v-1.924h-2.054v1.924h-0.94V38.051h-0.007 c-0.134-1.529-6.766-4.106-16.204-4.694l-1.055-1.188v-4.194h0.603V26.37H43.54v-2.926h-0.681v0.265h-6.856v-2.943h-0.455 c0.05-0.722,0.171-2.043,0.536-2.457c0.511-0.576,0.949-0.438,1.118-0.438c0.168,0,0.339-0.766-0.383-0.766 c-0.735,0-1.381,0.241-1.381,0.241s0.307-0.676,0.05-0.907c-0.06-0.049-0.13-0.073-0.218-0.091V4.836h-0.381v11.486 c-0.295,0.046-0.565,0.173-0.512,0.347c0.084,0.344,0.123,0.631,0.123,0.631s-0.341-0.438-0.772-0.726 c-0.435-0.291-1.412-0.196-1.157,0.091c0.257,0.301,1.539,1.167,1.679,1.934c0.08,0.534,0.257,1.574,0.354,2.166h-0.491v2.937 h-7.286v-0.291h-0.683v2.955h-1.889v1.605h0.316v4.201l-1.097,1.232c-9.021,0.612-15.28,3.162-15.41,4.646H8.059v16.085H6.945 v-1.924h-2.06v1.924H2.996v-1.924H0.943v1.924H0v10.889h69.86V54.136H69.004z M38.35,33.141v3.268h-7.197v-3.268H38.35z M36.691,63.803h-3.508V57.77h3.508V63.803z M61.206,50.467c-0.798-0.575-2.811-1.379-7.115-2.074 c-5.078-0.821-11.841-1.279-19.034-1.279c-7.189,0-13.947,0.451-19.027,1.279c-4.473,0.723-6.483,1.558-7.199,2.14V49.42 c1.08-0.633,3.14-1.346,7.072-1.979c5.112-0.835,11.914-1.286,19.153-1.286c7.234,0,14.038,0.451,19.157,1.286 c3.833,0.623,5.887,1.314,6.992,1.931V50.467z M61.206,43.346c-0.798-0.582-2.811-1.387-7.115-2.092 c-5.078-0.817-11.841-1.279-19.034-1.279c-7.189,0-13.947,0.462-19.027,1.279c-4.473,0.726-6.483,1.568-7.199,2.149v-1.115 c1.08-0.63,3.14-1.349,7.072-1.981c5.112-0.828,11.914-1.287,19.153-1.287c7.234,0,14.038,0.459,19.157,1.287 c3.833,0.623,5.887,1.314,6.992,1.937V43.346z"></path> </g> </g></svg>