<?xml version="1.0" encoding="UTF-8"?>
<svg version="1.1" xmlns="http://www.w3.org/2000/svg" width="512" height="512">
<path d="M0 0 C1.84968715 0.51044924 3.70228216 1.01047686 5.55761719 1.5 C17.64798408 4.69352082 26.92999016 8.25856546 36.71362305 16.14111328 C38.30628533 17.30941025 39.90356933 18.47144759 41.5065918 19.62548828 C42.97270134 20.7123245 44.43753704 21.80088112 45.90112305 22.89111328 C52.22651522 27.57770027 58.57495283 32.22863282 64.96362305 36.82861328 C72.91401568 42.55390977 80.8230348 48.33373344 88.71362305 54.14111328 C100.42485731 48.90013465 112.10285315 43.60128648 123.71362305 38.14111328 C123.7276416 36.68874268 123.7276416 36.68874268 123.74194336 35.20703125 C123.78199087 31.59475681 123.84778858 27.98332093 123.92114258 24.37158203 C123.94926717 22.81212178 123.97052394 21.25252124 123.98461914 19.69287109 C124.00616847 17.44312155 124.05287361 15.19504354 124.10424805 12.94580078 C124.10547668 12.25493378 124.10670532 11.56406677 124.10797119 10.8522644 C124.25699147 5.8626729 125.55063252 2.9674946 128.71362305 -0.85888672 C132.14524741 -2.793075 134.44220446 -3.94759034 138.40112305 -3.67138672 C143.34350661 -1.93487357 145.27701288 -0.67054433 147.71362305 4.14111328 C148.05419922 6.82006836 148.05419922 6.82006836 148.0065918 9.66064453 C147.99692383 10.68222656 147.98725586 11.70380859 147.97729492 12.75634766 C147.9521582 13.81144531 147.92702148 14.86654297 147.90112305 15.95361328 C147.88758789 17.02804688 147.87405273 18.10248047 147.86010742 19.20947266 C147.82484882 21.85386783 147.77556671 24.49723076 147.71362305 27.14111328 C148.79643555 26.81884766 149.87924805 26.49658203 150.99487305 26.16455078 C156.31704576 24.69983518 160.4918125 24.24870318 165.46362305 26.82861328 C168.7796419 29.18808824 170.26030723 30.37958999 171.71362305 34.14111328 C172.21630316 38.66523433 172.26987798 41.00441841 170.27612305 45.07861328 C161.40354064 55.68243128 161.40354064 55.68243128 156.29512972 58.45260799 C150.81075717 61.57499994 150.81075717 61.57499994 147.78736699 66.89204431 C147.44239054 70.35358702 147.41609062 73.69541488 147.49330139 77.1736145 C147.48279029 78.49097151 147.47227919 79.80832851 147.46144956 81.16560543 C147.43363648 84.81247798 147.46788417 88.456511 147.51240098 92.10312009 C147.54947872 96.03910792 147.52865743 99.97484063 147.51480103 103.91091919 C147.49857333 110.72811291 147.51852926 117.54442624 147.56282234 124.36148453 C147.62657989 134.2230692 147.63223838 144.08402689 147.62323111 153.94578253 C147.60990633 169.9532752 147.63895566 185.96038976 147.69677734 201.96777344 C147.75276437 217.50357797 147.79632585 233.03930175 147.81787109 248.57519531 C147.81920754 249.53234181 147.82054399 250.4894883 147.82192094 251.47563924 C147.83607238 261.922986 147.84580926 272.37033107 147.85096645 282.81768608 C147.85166365 284.19456623 147.85166365 284.19456623 147.85237492 285.59926214 C147.85419073 289.26849119 147.85598604 292.93772014 147.85724609 296.60694943 C147.86108654 307.35264638 147.87863556 318.09811876 147.92074209 328.84373735 C147.94689672 335.58144211 147.96358816 342.3191224 147.97282542 349.05687155 C147.97867573 352.94613445 147.98974901 356.83521602 148.01403236 360.72441101 C148.04033018 364.93720341 148.04374867 369.14970535 148.0450592 373.36257935 C148.05672798 374.59612565 148.06839675 375.82967196 148.08041912 377.10059845 C148.07712957 378.22789018 148.07384002 379.35518191 148.07045078 380.51663399 C148.07397291 381.48910045 148.07749503 382.46156691 148.08112389 383.46350205 C147.64257938 386.65873744 146.5961679 388.54408653 144.71362305 391.14111328 C141.90155069 392.54714946 139.47352839 392.38668834 136.33862305 392.45361328 C135.19651367 392.49099609 134.0544043 392.52837891 132.87768555 392.56689453 C129.71362305 392.14111328 129.71362305 392.14111328 127.36206055 390.30908203 C124.76469013 386.89310909 124.5888751 384.14984312 124.59057522 379.99305439 C124.58858417 378.9211622 124.58659312 377.84927001 124.58454174 376.74489623 C124.58745458 375.56300458 124.59036742 374.38111292 124.59336853 373.16340637 C124.59208689 371.28521093 124.59208689 371.28521093 124.59077936 369.36907214 C124.58853786 365.88695711 124.592551 362.40487269 124.59755743 358.92276156 C124.60186666 355.17022299 124.60041516 351.41768622 124.59965515 347.66514587 C124.59913022 341.16141664 124.60227384 334.65769743 124.60789299 328.15397072 C124.61601211 318.75061664 124.61862363 309.34726741 124.61988098 299.9439102 C124.62207085 284.68843413 124.62872918 269.4329634 124.63818359 254.17749023 C124.64735939 239.35620144 124.65443941 224.5349141 124.65869141 209.71362305 C124.65895413 208.80039057 124.65921685 207.88715809 124.65948754 206.94625191 C124.66079255 202.36493801 124.66205627 197.78362411 124.66329944 193.2023102 C124.67367003 155.18190749 124.69128658 117.16151074 124.71362305 79.14111328 C121.18517876 81.21737385 117.65825677 83.29620709 114.1315918 85.37548828 C112.64169739 86.25213135 112.64169739 86.25213135 111.1217041 87.14648438 C105.20903958 90.63447813 99.36619144 94.18262289 93.6394043 97.96923828 C90.50407617 99.87714586 87.75124381 100.34381827 84.15112305 100.45361328 C82.97356445 100.5096875 82.97356445 100.5096875 81.7722168 100.56689453 C73.50880956 99.4165607 66.80158451 95.21967158 60.27612305 90.26611328 C59.51678467 89.70456543 58.75744629 89.14301758 57.97509766 88.56445312 C55.54705517 86.76658392 53.13012737 84.95445198 50.71362305 83.14111328 C48.21568806 81.28036672 45.71503937 79.4234116 43.21142578 77.5703125 C41.6450367 76.40984982 40.08177599 75.24514614 38.52246094 74.07519531 C34.42116481 71.02401575 30.24834651 68.16713353 25.92626953 65.43554688 C24.9468187 64.81553802 23.96736786 64.19552917 22.95823669 63.55673218 C22.21751419 63.08957794 21.47679169 62.62242371 20.71362305 62.14111328 C17.70799528 74.30916809 14.70859174 86.47873845 11.7171402 98.65028667 C10.32791734 104.30187944 8.93655033 109.95292628 7.5402832 115.6027832 C6.19306839 121.0544931 4.85148602 126.50756067 3.5138092 131.96161842 C3.00229034 134.0429304 2.4887387 136.12374387 1.97312927 138.20404625 C1.25169344 141.11626671 0.53748395 144.03017053 -0.17504883 146.94458008 C-0.39011581 147.80557312 -0.6051828 148.66656616 -0.82676697 149.5536499 C-2.43247739 155.31708712 -2.43247739 155.31708712 -2.28637695 161.14111328 C-0.3869057 163.47709623 1.45346764 165.45192959 3.61694336 167.5168457 C4.24450027 168.135495 4.87205719 168.75414429 5.51863098 169.39154053 C6.88333784 170.73387088 8.25374578 172.07042389 9.62909698 173.40184593 C11.80993804 175.51420079 13.97430012 177.64223055 16.13494873 179.77522278 C21.50786408 185.07329445 26.90534565 190.34607406 32.30743408 195.61437988 C36.86613255 200.06087268 41.41248292 204.51926696 45.94228363 208.99520302 C48.06657099 211.08452513 50.20785671 213.15529809 52.35015869 215.22612 C60.19999471 222.91123835 66.29797682 229.19318417 67.21850586 240.61254883 C67.22722471 242.10521747 67.20917803 243.59824108 67.16674805 245.09033203 C67.14707977 246.31486336 67.14707977 246.31486336 67.12701416 247.56413269 C66.86052016 256.54117792 65.24859828 265.17529008 63.46362305 273.95361328 C63.10937072 275.75856682 62.75672568 277.56383641 62.40551758 279.36938477 C61.62514271 283.3710626 60.83493529 287.37066687 60.04077148 291.36962891 C58.68367148 298.24420698 57.39452826 305.13097685 56.109375 312.01925087 C55.33115057 316.1817713 54.54470785 320.34274587 53.75797272 324.50366497 C53.11336579 327.91440745 52.47213775 331.3256976 51.83947754 334.73867798 C47.2095664 359.66599815 47.2095664 359.66599815 43.65893555 370.48095703 C43.43736786 371.15977432 43.21580017 371.83859161 42.98751831 372.53797913 C40.61547865 379.236427 37.04610306 386.52255327 30.71362305 390.14111328 C25.50057084 390.80459265 22.11672601 389.97866853 17.71362305 387.14111328 C9.28789385 378.24728802 10.36008834 365.95407307 10.62451172 354.45820236 C10.89078518 347.53451106 11.7045267 340.65324061 12.46362305 333.77001953 C12.64390702 332.06959111 12.82324902 330.36906259 13.00170898 328.66844177 C13.46776735 324.24443402 13.94337494 319.82151577 14.42211914 315.39886475 C15.18993157 308.29965435 15.9471243 301.19934115 16.69616699 294.09812737 C16.95733449 291.64166769 17.22528133 289.18601674 17.49389648 286.73036194 C19.89916038 273.44632917 19.89916038 273.44632917 16.6940918 261.29345703 C15.77241211 260.56255859 14.85073242 259.83166016 13.90112305 259.07861328 C12.38518555 257.8353125 12.38518555 257.8353125 10.83862305 256.56689453 C9.80737305 255.76638672 8.77612305 254.96587891 7.71362305 254.14111328 C5.94078308 252.68522 4.16990321 251.22693618 2.40112305 249.76611328 C1.49749023 249.03650391 0.59385742 248.30689453 -0.3371582 247.55517578 C-3.70006165 244.80249455 -6.99567264 241.97929559 -10.28637695 239.14111328 C-14.41089401 235.58639783 -18.558462 232.07318542 -22.78637695 228.64111328 C-27.63108256 224.70835226 -32.36623338 220.66018165 -37.09057617 216.5847168 C-40.65043293 213.52093764 -44.25316471 210.52521363 -47.91137695 207.57861328 C-64.53852158 194.02785665 -80.1929417 180.4742068 -83.28637695 158.14111328 C-83.55007099 151.57391275 -83.11868766 145.23067949 -82.11303711 138.74365234 C-81.914924 137.45358465 -81.914924 137.45358465 -81.71280861 136.13745499 C-80.18042346 126.73050206 -77.68616656 117.65051303 -75.05981445 108.50048828 C-74.54651561 106.67789052 -74.03430499 104.85498598 -73.52310181 103.03179932 C-72.18591632 98.2737021 -70.83440553 93.51979832 -69.47949219 88.76672363 C-68.13171149 84.02938108 -66.79743983 79.28824092 -65.4621582 74.54736328 C-63.38887492 67.19162889 -61.3072246 59.83832055 -59.21899414 52.48681641 C-57.33658636 45.85897835 -55.46613276 39.22796949 -53.61157227 32.59228516 C-53.40379213 31.84964039 -53.196012 31.10699562 -52.9819355 30.34184647 C-52.02547515 26.92291633 -51.07097317 23.50346516 -50.12020874 20.08294678 C-44.08692411 -1.48828978 -44.08692411 -1.48828978 -36.34887695 -6.92138672 C-26.68379503 -10.41141299 -9.65546631 -2.68942602 0 0 Z " fill="#000000" transform="translate(267.286376953125,119.85888671875)"/>
<path d="M0 0 C3.8890546 3.48842335 5.56949731 6.88193051 6.2734375 11.98046875 C6.52083002 17.3564986 5.59381157 21.94803002 4.046875 27.08984375 C3.83008087 27.81116486 3.61328674 28.53248596 3.3899231 29.27566528 C-0.08224423 40.70889788 -3.80985069 52.06472346 -7.49466324 63.43065262 C-9.41196749 69.34480158 -11.32660764 75.25980988 -13.23828125 81.17578125 C-13.44685698 81.82100927 -13.6554327 82.4662373 -13.8703289 83.13101768 C-16.46637063 91.16738476 -19.01651707 99.21513152 -21.48046875 107.29296875 C-21.73127197 108.1110199 -21.9820752 108.92907104 -22.24047852 109.77191162 C-23.35211608 113.40043798 -24.45149023 117.03165927 -25.52587891 120.67138672 C-29.04566649 132.21120833 -33.0176802 141.32353605 -43.9375 147.1875 C-55.32688687 152.60595831 -67.54164448 149.72220733 -79 146 C-91.38178273 141.52934501 -103.68861141 135.48932492 -111 124 C-116.17066841 110.78818183 -112.27961586 96.86836332 -106.9375 84.375 C-100.50472799 69.94472766 -92.5764687 56.54922446 -83 44 C-82.56042969 43.41766602 -82.12085937 42.83533203 -81.66796875 42.23535156 C-75.22036959 33.72061867 -68.3441231 25.74955577 -61 18 C-60.40960938 17.33355469 -59.81921875 16.66710937 -59.2109375 15.98046875 C-46.14979925 1.72902973 -18.31014919 -9.9873541 0 0 Z " fill="#000000" transform="translate(194,104)"/>
<path d="M0 0 C1.13882298 1.70823447 2.27641152 3.41729717 3.41015625 5.12890625 C10.62365859 15.753048 18.85534701 24.15852938 29 32 C29.55333008 32.42877441 30.10666016 32.85754883 30.67675781 33.29931641 C33.46181061 35.45581456 36.25421229 37.60180077 39.0546875 39.73828125 C40.02664062 40.48464844 40.99859375 41.23101562 42 42 C43.45792969 42.91845703 43.45792969 42.91845703 44.9453125 43.85546875 C47 46 47 46 47 49.09765625 C46.70199836 50.40698356 46.36413529 51.70750301 46 53 C45.79761719 53.78101074 45.59523438 54.56202148 45.38671875 55.36669922 C41.8671125 68.28748836 37.21441344 79.74337346 30 91 C29.53352051 91.73299316 29.06704102 92.46598633 28.58642578 93.22119141 C25.94827272 97.34930825 23.27396678 101.4523269 20.578125 105.54296875 C17.40361124 110.36551671 14.29280006 115.22645211 11.19360352 120.09765625 C5.04225453 129.76374096 -1.1736292 139.38494105 -7.5 148.9375 C-8.13397705 149.90139648 -8.7679541 150.86529297 -9.42114258 151.85839844 C-28.31803297 180.24217762 -28.31803297 180.24217762 -43 185 C-47.07175706 185.72735415 -50.13647682 185.40420234 -53.9375 183.625 C-56.28778354 181.77326145 -56.88560244 180.86778721 -57.2734375 177.92578125 C-57.7902479 164.627852 -51.47458979 152.27481993 -45.8125 140.5625 C-44.56884306 137.95045319 -43.33299044 135.33474148 -42.09765625 132.71875 C-41.60971085 131.68772911 -41.60971085 131.68772911 -41.11190796 130.63587952 C-36.06582219 119.94373142 -31.23905238 109.14954961 -26.42456055 98.3515625 C-25.86018532 97.08578369 -25.86018532 97.08578369 -25.28440857 95.79443359 C-24.54396417 94.13345332 -23.80385598 92.47232312 -23.06410217 90.81103516 C-21.02682827 86.24943412 -18.93505938 81.72270812 -16.7734375 77.21875 C-10.91473112 64.85289789 -8.10084371 53.2998479 -6.46386719 39.73632812 C-5.62087987 32.94628713 -4.6259317 26.1772652 -3.65420532 19.40466309 C-3.31604271 17.02493091 -2.98725548 14.64407114 -2.66088867 12.26269531 C-2.45753004 10.80012875 -2.25416139 9.33756358 -2.05078125 7.875 C-1.87200439 6.57304687 -1.69322754 5.27109375 -1.5090332 3.9296875 C-1 1 -1 1 0 0 Z " fill="#000000" transform="translate(179,319)"/>
<path d="M0 0 C0.70769531 0.5053125 1.41539062 1.010625 2.14453125 1.53125 C2.71816406 1.9334375 3.29179687 2.335625 3.8828125 2.75 C13.42150721 10.04574583 19.20644034 21.8815858 20.921875 33.58984375 C21.90497466 46.57710766 19.33064842 58.41980376 11.39453125 68.90625 C3.60633514 77.92416128 -6.8527464 85.50212159 -19.02197266 86.75415039 C-28.8777922 87.24136419 -37.92407687 87.16341435 -46.85546875 82.53125 C-47.70238281 82.11875 -48.54929687 81.70625 -49.421875 81.28125 C-60.7782663 75.1782733 -67.52747063 65.48200307 -71.9375 53.62109375 C-75.7069529 40.9332757 -73.50827153 28.2494689 -67.85546875 16.53125 C-65.85546875 13.21875 -65.85546875 13.21875 -63.85546875 10.53125 C-63.27796875 9.70625 -62.70046875 8.88125 -62.10546875 8.03125 C-46.5409602 -9.26264839 -19.39716865 -12.78520971 0 0 Z " fill="#000000" transform="translate(311.85546875,9.46875)"/>
</svg>
