<svg xmlns="http://www.w3.org/2000/svg" xmlns:xlink="http://www.w3.org/1999/xlink" width="392" height="372" viewBox="0 0 392 372">
  <defs>
    <clipPath id="clip-path">
      <rect width="392" height="372" fill="none"/>
    </clipPath>
  </defs>
  <g id="Repeat_Grid_2" data-name="Repeat Grid 2" opacity="0.16" clip-path="url(#clip-path)">
    <g transform="translate(-336 -1874)">
      <circle id="Ellipse_10" data-name="Ellipse 10" cx="4" cy="4" r="4" transform="translate(336 1874)" fill="#707070"/>
    </g>
    <g transform="translate(-312 -1874)">
      <circle id="Ellipse_10-2" data-name="Ellipse 10" cx="4" cy="4" r="4" transform="translate(336 1874)" fill="#707070"/>
    </g>
    <g transform="translate(-288 -1874)">
      <circle id="Ellipse_10-3" data-name="Ellipse 10" cx="4" cy="4" r="4" transform="translate(336 1874)" fill="#707070"/>
    </g>
    <g transform="translate(-264 -1874)">
      <circle id="Ellipse_10-4" data-name="Ellipse 10" cx="4" cy="4" r="4" transform="translate(336 1874)" fill="#707070"/>
    </g>
    <g transform="translate(-240 -1874)">
      <circle id="Ellipse_10-5" data-name="Ellipse 10" cx="4" cy="4" r="4" transform="translate(336 1874)" fill="#707070"/>
    </g>
    <g transform="translate(-216 -1874)">
      <circle id="Ellipse_10-6" data-name="Ellipse 10" cx="4" cy="4" r="4" transform="translate(336 1874)" fill="#707070"/>
    </g>
    <g transform="translate(-192 -1874)">
      <circle id="Ellipse_10-7" data-name="Ellipse 10" cx="4" cy="4" r="4" transform="translate(336 1874)" fill="#707070"/>
    </g>
    <g transform="translate(-168 -1874)">
      <circle id="Ellipse_10-8" data-name="Ellipse 10" cx="4" cy="4" r="4" transform="translate(336 1874)" fill="#707070"/>
    </g>
    <g transform="translate(-144 -1874)">
      <circle id="Ellipse_10-9" data-name="Ellipse 10" cx="4" cy="4" r="4" transform="translate(336 1874)" fill="#707070"/>
    </g>
    <g transform="translate(-120 -1874)">
      <circle id="Ellipse_10-10" data-name="Ellipse 10" cx="4" cy="4" r="4" transform="translate(336 1874)" fill="#707070"/>
    </g>
    <g transform="translate(-96 -1874)">
      <circle id="Ellipse_10-11" data-name="Ellipse 10" cx="4" cy="4" r="4" transform="translate(336 1874)" fill="#707070"/>
    </g>
    <g transform="translate(-72 -1874)">
      <circle id="Ellipse_10-12" data-name="Ellipse 10" cx="4" cy="4" r="4" transform="translate(336 1874)" fill="#707070"/>
    </g>
    <g transform="translate(-48 -1874)">
      <circle id="Ellipse_10-13" data-name="Ellipse 10" cx="4" cy="4" r="4" transform="translate(336 1874)" fill="#707070"/>
    </g>
    <g transform="translate(-24 -1874)">
      <circle id="Ellipse_10-14" data-name="Ellipse 10" cx="4" cy="4" r="4" transform="translate(336 1874)" fill="#707070"/>
    </g>
    <g transform="translate(0 -1874)">
      <circle id="Ellipse_10-15" data-name="Ellipse 10" cx="4" cy="4" r="4" transform="translate(336 1874)" fill="#707070"/>
    </g>
    <g transform="translate(24 -1874)">
      <circle id="Ellipse_10-16" data-name="Ellipse 10" cx="4" cy="4" r="4" transform="translate(336 1874)" fill="#707070"/>
    </g>
    <g transform="translate(48 -1874)">
      <circle id="Ellipse_10-17" data-name="Ellipse 10" cx="4" cy="4" r="4" transform="translate(336 1874)" fill="#707070"/>
    </g>
    <g transform="translate(-336 -1846)">
      <circle id="Ellipse_10-18" data-name="Ellipse 10" cx="4" cy="4" r="4" transform="translate(336 1874)" fill="#707070"/>
    </g>
    <g transform="translate(-312 -1846)">
      <circle id="Ellipse_10-19" data-name="Ellipse 10" cx="4" cy="4" r="4" transform="translate(336 1874)" fill="#707070"/>
    </g>
    <g transform="translate(-288 -1846)">
      <circle id="Ellipse_10-20" data-name="Ellipse 10" cx="4" cy="4" r="4" transform="translate(336 1874)" fill="#707070"/>
    </g>
    <g transform="translate(-264 -1846)">
      <circle id="Ellipse_10-21" data-name="Ellipse 10" cx="4" cy="4" r="4" transform="translate(336 1874)" fill="#707070"/>
    </g>
    <g transform="translate(-240 -1846)">
      <circle id="Ellipse_10-22" data-name="Ellipse 10" cx="4" cy="4" r="4" transform="translate(336 1874)" fill="#707070"/>
    </g>
    <g transform="translate(-216 -1846)">
      <circle id="Ellipse_10-23" data-name="Ellipse 10" cx="4" cy="4" r="4" transform="translate(336 1874)" fill="#707070"/>
    </g>
    <g transform="translate(-192 -1846)">
      <circle id="Ellipse_10-24" data-name="Ellipse 10" cx="4" cy="4" r="4" transform="translate(336 1874)" fill="#707070"/>
    </g>
    <g transform="translate(-168 -1846)">
      <circle id="Ellipse_10-25" data-name="Ellipse 10" cx="4" cy="4" r="4" transform="translate(336 1874)" fill="#707070"/>
    </g>
    <g transform="translate(-144 -1846)">
      <circle id="Ellipse_10-26" data-name="Ellipse 10" cx="4" cy="4" r="4" transform="translate(336 1874)" fill="#707070"/>
    </g>
    <g transform="translate(-120 -1846)">
      <circle id="Ellipse_10-27" data-name="Ellipse 10" cx="4" cy="4" r="4" transform="translate(336 1874)" fill="#707070"/>
    </g>
    <g transform="translate(-96 -1846)">
      <circle id="Ellipse_10-28" data-name="Ellipse 10" cx="4" cy="4" r="4" transform="translate(336 1874)" fill="#707070"/>
    </g>
    <g transform="translate(-72 -1846)">
      <circle id="Ellipse_10-29" data-name="Ellipse 10" cx="4" cy="4" r="4" transform="translate(336 1874)" fill="#707070"/>
    </g>
    <g transform="translate(-48 -1846)">
      <circle id="Ellipse_10-30" data-name="Ellipse 10" cx="4" cy="4" r="4" transform="translate(336 1874)" fill="#707070"/>
    </g>
    <g transform="translate(-24 -1846)">
      <circle id="Ellipse_10-31" data-name="Ellipse 10" cx="4" cy="4" r="4" transform="translate(336 1874)" fill="#707070"/>
    </g>
    <g transform="translate(0 -1846)">
      <circle id="Ellipse_10-32" data-name="Ellipse 10" cx="4" cy="4" r="4" transform="translate(336 1874)" fill="#707070"/>
    </g>
    <g transform="translate(24 -1846)">
      <circle id="Ellipse_10-33" data-name="Ellipse 10" cx="4" cy="4" r="4" transform="translate(336 1874)" fill="#707070"/>
    </g>
    <g transform="translate(48 -1846)">
      <circle id="Ellipse_10-34" data-name="Ellipse 10" cx="4" cy="4" r="4" transform="translate(336 1874)" fill="#707070"/>
    </g>
    <g transform="translate(-336 -1818)">
      <circle id="Ellipse_10-35" data-name="Ellipse 10" cx="4" cy="4" r="4" transform="translate(336 1874)" fill="#707070"/>
    </g>
    <g transform="translate(-312 -1818)">
      <circle id="Ellipse_10-36" data-name="Ellipse 10" cx="4" cy="4" r="4" transform="translate(336 1874)" fill="#707070"/>
    </g>
    <g transform="translate(-288 -1818)">
      <circle id="Ellipse_10-37" data-name="Ellipse 10" cx="4" cy="4" r="4" transform="translate(336 1874)" fill="#707070"/>
    </g>
    <g transform="translate(-264 -1818)">
      <circle id="Ellipse_10-38" data-name="Ellipse 10" cx="4" cy="4" r="4" transform="translate(336 1874)" fill="#707070"/>
    </g>
    <g transform="translate(-240 -1818)">
      <circle id="Ellipse_10-39" data-name="Ellipse 10" cx="4" cy="4" r="4" transform="translate(336 1874)" fill="#707070"/>
    </g>
    <g transform="translate(-216 -1818)">
      <circle id="Ellipse_10-40" data-name="Ellipse 10" cx="4" cy="4" r="4" transform="translate(336 1874)" fill="#707070"/>
    </g>
    <g transform="translate(-192 -1818)">
      <circle id="Ellipse_10-41" data-name="Ellipse 10" cx="4" cy="4" r="4" transform="translate(336 1874)" fill="#707070"/>
    </g>
    <g transform="translate(-168 -1818)">
      <circle id="Ellipse_10-42" data-name="Ellipse 10" cx="4" cy="4" r="4" transform="translate(336 1874)" fill="#707070"/>
    </g>
    <g transform="translate(-144 -1818)">
      <circle id="Ellipse_10-43" data-name="Ellipse 10" cx="4" cy="4" r="4" transform="translate(336 1874)" fill="#707070"/>
    </g>
    <g transform="translate(-120 -1818)">
      <circle id="Ellipse_10-44" data-name="Ellipse 10" cx="4" cy="4" r="4" transform="translate(336 1874)" fill="#707070"/>
    </g>
    <g transform="translate(-96 -1818)">
      <circle id="Ellipse_10-45" data-name="Ellipse 10" cx="4" cy="4" r="4" transform="translate(336 1874)" fill="#707070"/>
    </g>
    <g transform="translate(-72 -1818)">
      <circle id="Ellipse_10-46" data-name="Ellipse 10" cx="4" cy="4" r="4" transform="translate(336 1874)" fill="#707070"/>
    </g>
    <g transform="translate(-48 -1818)">
      <circle id="Ellipse_10-47" data-name="Ellipse 10" cx="4" cy="4" r="4" transform="translate(336 1874)" fill="#707070"/>
    </g>
    <g transform="translate(-24 -1818)">
      <circle id="Ellipse_10-48" data-name="Ellipse 10" cx="4" cy="4" r="4" transform="translate(336 1874)" fill="#707070"/>
    </g>
    <g transform="translate(0 -1818)">
      <circle id="Ellipse_10-49" data-name="Ellipse 10" cx="4" cy="4" r="4" transform="translate(336 1874)" fill="#707070"/>
    </g>
    <g transform="translate(24 -1818)">
      <circle id="Ellipse_10-50" data-name="Ellipse 10" cx="4" cy="4" r="4" transform="translate(336 1874)" fill="#707070"/>
    </g>
    <g transform="translate(48 -1818)">
      <circle id="Ellipse_10-51" data-name="Ellipse 10" cx="4" cy="4" r="4" transform="translate(336 1874)" fill="#707070"/>
    </g>
    <g transform="translate(-336 -1790)">
      <circle id="Ellipse_10-52" data-name="Ellipse 10" cx="4" cy="4" r="4" transform="translate(336 1874)" fill="#707070"/>
    </g>
    <g transform="translate(-312 -1790)">
      <circle id="Ellipse_10-53" data-name="Ellipse 10" cx="4" cy="4" r="4" transform="translate(336 1874)" fill="#707070"/>
    </g>
    <g transform="translate(-288 -1790)">
      <circle id="Ellipse_10-54" data-name="Ellipse 10" cx="4" cy="4" r="4" transform="translate(336 1874)" fill="#707070"/>
    </g>
    <g transform="translate(-264 -1790)">
      <circle id="Ellipse_10-55" data-name="Ellipse 10" cx="4" cy="4" r="4" transform="translate(336 1874)" fill="#707070"/>
    </g>
    <g transform="translate(-240 -1790)">
      <circle id="Ellipse_10-56" data-name="Ellipse 10" cx="4" cy="4" r="4" transform="translate(336 1874)" fill="#707070"/>
    </g>
    <g transform="translate(-216 -1790)">
      <circle id="Ellipse_10-57" data-name="Ellipse 10" cx="4" cy="4" r="4" transform="translate(336 1874)" fill="#707070"/>
    </g>
    <g transform="translate(-192 -1790)">
      <circle id="Ellipse_10-58" data-name="Ellipse 10" cx="4" cy="4" r="4" transform="translate(336 1874)" fill="#707070"/>
    </g>
    <g transform="translate(-168 -1790)">
      <circle id="Ellipse_10-59" data-name="Ellipse 10" cx="4" cy="4" r="4" transform="translate(336 1874)" fill="#707070"/>
    </g>
    <g transform="translate(-144 -1790)">
      <circle id="Ellipse_10-60" data-name="Ellipse 10" cx="4" cy="4" r="4" transform="translate(336 1874)" fill="#707070"/>
    </g>
    <g transform="translate(-120 -1790)">
      <circle id="Ellipse_10-61" data-name="Ellipse 10" cx="4" cy="4" r="4" transform="translate(336 1874)" fill="#707070"/>
    </g>
    <g transform="translate(-96 -1790)">
      <circle id="Ellipse_10-62" data-name="Ellipse 10" cx="4" cy="4" r="4" transform="translate(336 1874)" fill="#707070"/>
    </g>
    <g transform="translate(-72 -1790)">
      <circle id="Ellipse_10-63" data-name="Ellipse 10" cx="4" cy="4" r="4" transform="translate(336 1874)" fill="#707070"/>
    </g>
    <g transform="translate(-48 -1790)">
      <circle id="Ellipse_10-64" data-name="Ellipse 10" cx="4" cy="4" r="4" transform="translate(336 1874)" fill="#707070"/>
    </g>
    <g transform="translate(-24 -1790)">
      <circle id="Ellipse_10-65" data-name="Ellipse 10" cx="4" cy="4" r="4" transform="translate(336 1874)" fill="#707070"/>
    </g>
    <g transform="translate(0 -1790)">
      <circle id="Ellipse_10-66" data-name="Ellipse 10" cx="4" cy="4" r="4" transform="translate(336 1874)" fill="#707070"/>
    </g>
    <g transform="translate(24 -1790)">
      <circle id="Ellipse_10-67" data-name="Ellipse 10" cx="4" cy="4" r="4" transform="translate(336 1874)" fill="#707070"/>
    </g>
    <g transform="translate(48 -1790)">
      <circle id="Ellipse_10-68" data-name="Ellipse 10" cx="4" cy="4" r="4" transform="translate(336 1874)" fill="#707070"/>
    </g>
    <g transform="translate(-336 -1762)">
      <circle id="Ellipse_10-69" data-name="Ellipse 10" cx="4" cy="4" r="4" transform="translate(336 1874)" fill="#707070"/>
    </g>
    <g transform="translate(-312 -1762)">
      <circle id="Ellipse_10-70" data-name="Ellipse 10" cx="4" cy="4" r="4" transform="translate(336 1874)" fill="#707070"/>
    </g>
    <g transform="translate(-288 -1762)">
      <circle id="Ellipse_10-71" data-name="Ellipse 10" cx="4" cy="4" r="4" transform="translate(336 1874)" fill="#707070"/>
    </g>
    <g transform="translate(-264 -1762)">
      <circle id="Ellipse_10-72" data-name="Ellipse 10" cx="4" cy="4" r="4" transform="translate(336 1874)" fill="#707070"/>
    </g>
    <g transform="translate(-240 -1762)">
      <circle id="Ellipse_10-73" data-name="Ellipse 10" cx="4" cy="4" r="4" transform="translate(336 1874)" fill="#707070"/>
    </g>
    <g transform="translate(-216 -1762)">
      <circle id="Ellipse_10-74" data-name="Ellipse 10" cx="4" cy="4" r="4" transform="translate(336 1874)" fill="#707070"/>
    </g>
    <g transform="translate(-192 -1762)">
      <circle id="Ellipse_10-75" data-name="Ellipse 10" cx="4" cy="4" r="4" transform="translate(336 1874)" fill="#707070"/>
    </g>
    <g transform="translate(-168 -1762)">
      <circle id="Ellipse_10-76" data-name="Ellipse 10" cx="4" cy="4" r="4" transform="translate(336 1874)" fill="#707070"/>
    </g>
    <g transform="translate(-144 -1762)">
      <circle id="Ellipse_10-77" data-name="Ellipse 10" cx="4" cy="4" r="4" transform="translate(336 1874)" fill="#707070"/>
    </g>
    <g transform="translate(-120 -1762)">
      <circle id="Ellipse_10-78" data-name="Ellipse 10" cx="4" cy="4" r="4" transform="translate(336 1874)" fill="#707070"/>
    </g>
    <g transform="translate(-96 -1762)">
      <circle id="Ellipse_10-79" data-name="Ellipse 10" cx="4" cy="4" r="4" transform="translate(336 1874)" fill="#707070"/>
    </g>
    <g transform="translate(-72 -1762)">
      <circle id="Ellipse_10-80" data-name="Ellipse 10" cx="4" cy="4" r="4" transform="translate(336 1874)" fill="#707070"/>
    </g>
    <g transform="translate(-48 -1762)">
      <circle id="Ellipse_10-81" data-name="Ellipse 10" cx="4" cy="4" r="4" transform="translate(336 1874)" fill="#707070"/>
    </g>
    <g transform="translate(-24 -1762)">
      <circle id="Ellipse_10-82" data-name="Ellipse 10" cx="4" cy="4" r="4" transform="translate(336 1874)" fill="#707070"/>
    </g>
    <g transform="translate(0 -1762)">
      <circle id="Ellipse_10-83" data-name="Ellipse 10" cx="4" cy="4" r="4" transform="translate(336 1874)" fill="#707070"/>
    </g>
    <g transform="translate(24 -1762)">
      <circle id="Ellipse_10-84" data-name="Ellipse 10" cx="4" cy="4" r="4" transform="translate(336 1874)" fill="#707070"/>
    </g>
    <g transform="translate(48 -1762)">
      <circle id="Ellipse_10-85" data-name="Ellipse 10" cx="4" cy="4" r="4" transform="translate(336 1874)" fill="#707070"/>
    </g>
    <g transform="translate(-336 -1734)">
      <circle id="Ellipse_10-86" data-name="Ellipse 10" cx="4" cy="4" r="4" transform="translate(336 1874)" fill="#707070"/>
    </g>
    <g transform="translate(-312 -1734)">
      <circle id="Ellipse_10-87" data-name="Ellipse 10" cx="4" cy="4" r="4" transform="translate(336 1874)" fill="#707070"/>
    </g>
    <g transform="translate(-288 -1734)">
      <circle id="Ellipse_10-88" data-name="Ellipse 10" cx="4" cy="4" r="4" transform="translate(336 1874)" fill="#707070"/>
    </g>
    <g transform="translate(-264 -1734)">
      <circle id="Ellipse_10-89" data-name="Ellipse 10" cx="4" cy="4" r="4" transform="translate(336 1874)" fill="#707070"/>
    </g>
    <g transform="translate(-240 -1734)">
      <circle id="Ellipse_10-90" data-name="Ellipse 10" cx="4" cy="4" r="4" transform="translate(336 1874)" fill="#707070"/>
    </g>
    <g transform="translate(-216 -1734)">
      <circle id="Ellipse_10-91" data-name="Ellipse 10" cx="4" cy="4" r="4" transform="translate(336 1874)" fill="#707070"/>
    </g>
    <g transform="translate(-192 -1734)">
      <circle id="Ellipse_10-92" data-name="Ellipse 10" cx="4" cy="4" r="4" transform="translate(336 1874)" fill="#707070"/>
    </g>
    <g transform="translate(-168 -1734)">
      <circle id="Ellipse_10-93" data-name="Ellipse 10" cx="4" cy="4" r="4" transform="translate(336 1874)" fill="#707070"/>
    </g>
    <g transform="translate(-144 -1734)">
      <circle id="Ellipse_10-94" data-name="Ellipse 10" cx="4" cy="4" r="4" transform="translate(336 1874)" fill="#707070"/>
    </g>
    <g transform="translate(-120 -1734)">
      <circle id="Ellipse_10-95" data-name="Ellipse 10" cx="4" cy="4" r="4" transform="translate(336 1874)" fill="#707070"/>
    </g>
    <g transform="translate(-96 -1734)">
      <circle id="Ellipse_10-96" data-name="Ellipse 10" cx="4" cy="4" r="4" transform="translate(336 1874)" fill="#707070"/>
    </g>
    <g transform="translate(-72 -1734)">
      <circle id="Ellipse_10-97" data-name="Ellipse 10" cx="4" cy="4" r="4" transform="translate(336 1874)" fill="#707070"/>
    </g>
    <g transform="translate(-48 -1734)">
      <circle id="Ellipse_10-98" data-name="Ellipse 10" cx="4" cy="4" r="4" transform="translate(336 1874)" fill="#707070"/>
    </g>
    <g transform="translate(-24 -1734)">
      <circle id="Ellipse_10-99" data-name="Ellipse 10" cx="4" cy="4" r="4" transform="translate(336 1874)" fill="#707070"/>
    </g>
    <g transform="translate(0 -1734)">
      <circle id="Ellipse_10-100" data-name="Ellipse 10" cx="4" cy="4" r="4" transform="translate(336 1874)" fill="#707070"/>
    </g>
    <g transform="translate(24 -1734)">
      <circle id="Ellipse_10-101" data-name="Ellipse 10" cx="4" cy="4" r="4" transform="translate(336 1874)" fill="#707070"/>
    </g>
    <g transform="translate(48 -1734)">
      <circle id="Ellipse_10-102" data-name="Ellipse 10" cx="4" cy="4" r="4" transform="translate(336 1874)" fill="#707070"/>
    </g>
    <g transform="translate(-336 -1706)">
      <circle id="Ellipse_10-103" data-name="Ellipse 10" cx="4" cy="4" r="4" transform="translate(336 1874)" fill="#707070"/>
    </g>
    <g transform="translate(-312 -1706)">
      <circle id="Ellipse_10-104" data-name="Ellipse 10" cx="4" cy="4" r="4" transform="translate(336 1874)" fill="#707070"/>
    </g>
    <g transform="translate(-288 -1706)">
      <circle id="Ellipse_10-105" data-name="Ellipse 10" cx="4" cy="4" r="4" transform="translate(336 1874)" fill="#707070"/>
    </g>
    <g transform="translate(-264 -1706)">
      <circle id="Ellipse_10-106" data-name="Ellipse 10" cx="4" cy="4" r="4" transform="translate(336 1874)" fill="#707070"/>
    </g>
    <g transform="translate(-240 -1706)">
      <circle id="Ellipse_10-107" data-name="Ellipse 10" cx="4" cy="4" r="4" transform="translate(336 1874)" fill="#707070"/>
    </g>
    <g transform="translate(-216 -1706)">
      <circle id="Ellipse_10-108" data-name="Ellipse 10" cx="4" cy="4" r="4" transform="translate(336 1874)" fill="#707070"/>
    </g>
    <g transform="translate(-192 -1706)">
      <circle id="Ellipse_10-109" data-name="Ellipse 10" cx="4" cy="4" r="4" transform="translate(336 1874)" fill="#707070"/>
    </g>
    <g transform="translate(-168 -1706)">
      <circle id="Ellipse_10-110" data-name="Ellipse 10" cx="4" cy="4" r="4" transform="translate(336 1874)" fill="#707070"/>
    </g>
    <g transform="translate(-144 -1706)">
      <circle id="Ellipse_10-111" data-name="Ellipse 10" cx="4" cy="4" r="4" transform="translate(336 1874)" fill="#707070"/>
    </g>
    <g transform="translate(-120 -1706)">
      <circle id="Ellipse_10-112" data-name="Ellipse 10" cx="4" cy="4" r="4" transform="translate(336 1874)" fill="#707070"/>
    </g>
    <g transform="translate(-96 -1706)">
      <circle id="Ellipse_10-113" data-name="Ellipse 10" cx="4" cy="4" r="4" transform="translate(336 1874)" fill="#707070"/>
    </g>
    <g transform="translate(-72 -1706)">
      <circle id="Ellipse_10-114" data-name="Ellipse 10" cx="4" cy="4" r="4" transform="translate(336 1874)" fill="#707070"/>
    </g>
    <g transform="translate(-48 -1706)">
      <circle id="Ellipse_10-115" data-name="Ellipse 10" cx="4" cy="4" r="4" transform="translate(336 1874)" fill="#707070"/>
    </g>
    <g transform="translate(-24 -1706)">
      <circle id="Ellipse_10-116" data-name="Ellipse 10" cx="4" cy="4" r="4" transform="translate(336 1874)" fill="#707070"/>
    </g>
    <g transform="translate(0 -1706)">
      <circle id="Ellipse_10-117" data-name="Ellipse 10" cx="4" cy="4" r="4" transform="translate(336 1874)" fill="#707070"/>
    </g>
    <g transform="translate(24 -1706)">
      <circle id="Ellipse_10-118" data-name="Ellipse 10" cx="4" cy="4" r="4" transform="translate(336 1874)" fill="#707070"/>
    </g>
    <g transform="translate(48 -1706)">
      <circle id="Ellipse_10-119" data-name="Ellipse 10" cx="4" cy="4" r="4" transform="translate(336 1874)" fill="#707070"/>
    </g>
    <g transform="translate(-336 -1678)">
      <circle id="Ellipse_10-120" data-name="Ellipse 10" cx="4" cy="4" r="4" transform="translate(336 1874)" fill="#707070"/>
    </g>
    <g transform="translate(-312 -1678)">
      <circle id="Ellipse_10-121" data-name="Ellipse 10" cx="4" cy="4" r="4" transform="translate(336 1874)" fill="#707070"/>
    </g>
    <g transform="translate(-288 -1678)">
      <circle id="Ellipse_10-122" data-name="Ellipse 10" cx="4" cy="4" r="4" transform="translate(336 1874)" fill="#707070"/>
    </g>
    <g transform="translate(-264 -1678)">
      <circle id="Ellipse_10-123" data-name="Ellipse 10" cx="4" cy="4" r="4" transform="translate(336 1874)" fill="#707070"/>
    </g>
    <g transform="translate(-240 -1678)">
      <circle id="Ellipse_10-124" data-name="Ellipse 10" cx="4" cy="4" r="4" transform="translate(336 1874)" fill="#707070"/>
    </g>
    <g transform="translate(-216 -1678)">
      <circle id="Ellipse_10-125" data-name="Ellipse 10" cx="4" cy="4" r="4" transform="translate(336 1874)" fill="#707070"/>
    </g>
    <g transform="translate(-192 -1678)">
      <circle id="Ellipse_10-126" data-name="Ellipse 10" cx="4" cy="4" r="4" transform="translate(336 1874)" fill="#707070"/>
    </g>
    <g transform="translate(-168 -1678)">
      <circle id="Ellipse_10-127" data-name="Ellipse 10" cx="4" cy="4" r="4" transform="translate(336 1874)" fill="#707070"/>
    </g>
    <g transform="translate(-144 -1678)">
      <circle id="Ellipse_10-128" data-name="Ellipse 10" cx="4" cy="4" r="4" transform="translate(336 1874)" fill="#707070"/>
    </g>
    <g transform="translate(-120 -1678)">
      <circle id="Ellipse_10-129" data-name="Ellipse 10" cx="4" cy="4" r="4" transform="translate(336 1874)" fill="#707070"/>
    </g>
    <g transform="translate(-96 -1678)">
      <circle id="Ellipse_10-130" data-name="Ellipse 10" cx="4" cy="4" r="4" transform="translate(336 1874)" fill="#707070"/>
    </g>
    <g transform="translate(-72 -1678)">
      <circle id="Ellipse_10-131" data-name="Ellipse 10" cx="4" cy="4" r="4" transform="translate(336 1874)" fill="#707070"/>
    </g>
    <g transform="translate(-48 -1678)">
      <circle id="Ellipse_10-132" data-name="Ellipse 10" cx="4" cy="4" r="4" transform="translate(336 1874)" fill="#707070"/>
    </g>
    <g transform="translate(-24 -1678)">
      <circle id="Ellipse_10-133" data-name="Ellipse 10" cx="4" cy="4" r="4" transform="translate(336 1874)" fill="#707070"/>
    </g>
    <g transform="translate(0 -1678)">
      <circle id="Ellipse_10-134" data-name="Ellipse 10" cx="4" cy="4" r="4" transform="translate(336 1874)" fill="#707070"/>
    </g>
    <g transform="translate(24 -1678)">
      <circle id="Ellipse_10-135" data-name="Ellipse 10" cx="4" cy="4" r="4" transform="translate(336 1874)" fill="#707070"/>
    </g>
    <g transform="translate(48 -1678)">
      <circle id="Ellipse_10-136" data-name="Ellipse 10" cx="4" cy="4" r="4" transform="translate(336 1874)" fill="#707070"/>
    </g>
    <g transform="translate(-336 -1650)">
      <circle id="Ellipse_10-137" data-name="Ellipse 10" cx="4" cy="4" r="4" transform="translate(336 1874)" fill="#707070"/>
    </g>
    <g transform="translate(-312 -1650)">
      <circle id="Ellipse_10-138" data-name="Ellipse 10" cx="4" cy="4" r="4" transform="translate(336 1874)" fill="#707070"/>
    </g>
    <g transform="translate(-288 -1650)">
      <circle id="Ellipse_10-139" data-name="Ellipse 10" cx="4" cy="4" r="4" transform="translate(336 1874)" fill="#707070"/>
    </g>
    <g transform="translate(-264 -1650)">
      <circle id="Ellipse_10-140" data-name="Ellipse 10" cx="4" cy="4" r="4" transform="translate(336 1874)" fill="#707070"/>
    </g>
    <g transform="translate(-240 -1650)">
      <circle id="Ellipse_10-141" data-name="Ellipse 10" cx="4" cy="4" r="4" transform="translate(336 1874)" fill="#707070"/>
    </g>
    <g transform="translate(-216 -1650)">
      <circle id="Ellipse_10-142" data-name="Ellipse 10" cx="4" cy="4" r="4" transform="translate(336 1874)" fill="#707070"/>
    </g>
    <g transform="translate(-192 -1650)">
      <circle id="Ellipse_10-143" data-name="Ellipse 10" cx="4" cy="4" r="4" transform="translate(336 1874)" fill="#707070"/>
    </g>
    <g transform="translate(-168 -1650)">
      <circle id="Ellipse_10-144" data-name="Ellipse 10" cx="4" cy="4" r="4" transform="translate(336 1874)" fill="#707070"/>
    </g>
    <g transform="translate(-144 -1650)">
      <circle id="Ellipse_10-145" data-name="Ellipse 10" cx="4" cy="4" r="4" transform="translate(336 1874)" fill="#707070"/>
    </g>
    <g transform="translate(-120 -1650)">
      <circle id="Ellipse_10-146" data-name="Ellipse 10" cx="4" cy="4" r="4" transform="translate(336 1874)" fill="#707070"/>
    </g>
    <g transform="translate(-96 -1650)">
      <circle id="Ellipse_10-147" data-name="Ellipse 10" cx="4" cy="4" r="4" transform="translate(336 1874)" fill="#707070"/>
    </g>
    <g transform="translate(-72 -1650)">
      <circle id="Ellipse_10-148" data-name="Ellipse 10" cx="4" cy="4" r="4" transform="translate(336 1874)" fill="#707070"/>
    </g>
    <g transform="translate(-48 -1650)">
      <circle id="Ellipse_10-149" data-name="Ellipse 10" cx="4" cy="4" r="4" transform="translate(336 1874)" fill="#707070"/>
    </g>
    <g transform="translate(-24 -1650)">
      <circle id="Ellipse_10-150" data-name="Ellipse 10" cx="4" cy="4" r="4" transform="translate(336 1874)" fill="#707070"/>
    </g>
    <g transform="translate(0 -1650)">
      <circle id="Ellipse_10-151" data-name="Ellipse 10" cx="4" cy="4" r="4" transform="translate(336 1874)" fill="#707070"/>
    </g>
    <g transform="translate(24 -1650)">
      <circle id="Ellipse_10-152" data-name="Ellipse 10" cx="4" cy="4" r="4" transform="translate(336 1874)" fill="#707070"/>
    </g>
    <g transform="translate(48 -1650)">
      <circle id="Ellipse_10-153" data-name="Ellipse 10" cx="4" cy="4" r="4" transform="translate(336 1874)" fill="#707070"/>
    </g>
    <g transform="translate(-336 -1622)">
      <circle id="Ellipse_10-154" data-name="Ellipse 10" cx="4" cy="4" r="4" transform="translate(336 1874)" fill="#707070"/>
    </g>
    <g transform="translate(-312 -1622)">
      <circle id="Ellipse_10-155" data-name="Ellipse 10" cx="4" cy="4" r="4" transform="translate(336 1874)" fill="#707070"/>
    </g>
    <g transform="translate(-288 -1622)">
      <circle id="Ellipse_10-156" data-name="Ellipse 10" cx="4" cy="4" r="4" transform="translate(336 1874)" fill="#707070"/>
    </g>
    <g transform="translate(-264 -1622)">
      <circle id="Ellipse_10-157" data-name="Ellipse 10" cx="4" cy="4" r="4" transform="translate(336 1874)" fill="#707070"/>
    </g>
    <g transform="translate(-240 -1622)">
      <circle id="Ellipse_10-158" data-name="Ellipse 10" cx="4" cy="4" r="4" transform="translate(336 1874)" fill="#707070"/>
    </g>
    <g transform="translate(-216 -1622)">
      <circle id="Ellipse_10-159" data-name="Ellipse 10" cx="4" cy="4" r="4" transform="translate(336 1874)" fill="#707070"/>
    </g>
    <g transform="translate(-192 -1622)">
      <circle id="Ellipse_10-160" data-name="Ellipse 10" cx="4" cy="4" r="4" transform="translate(336 1874)" fill="#707070"/>
    </g>
    <g transform="translate(-168 -1622)">
      <circle id="Ellipse_10-161" data-name="Ellipse 10" cx="4" cy="4" r="4" transform="translate(336 1874)" fill="#707070"/>
    </g>
    <g transform="translate(-144 -1622)">
      <circle id="Ellipse_10-162" data-name="Ellipse 10" cx="4" cy="4" r="4" transform="translate(336 1874)" fill="#707070"/>
    </g>
    <g transform="translate(-120 -1622)">
      <circle id="Ellipse_10-163" data-name="Ellipse 10" cx="4" cy="4" r="4" transform="translate(336 1874)" fill="#707070"/>
    </g>
    <g transform="translate(-96 -1622)">
      <circle id="Ellipse_10-164" data-name="Ellipse 10" cx="4" cy="4" r="4" transform="translate(336 1874)" fill="#707070"/>
    </g>
    <g transform="translate(-72 -1622)">
      <circle id="Ellipse_10-165" data-name="Ellipse 10" cx="4" cy="4" r="4" transform="translate(336 1874)" fill="#707070"/>
    </g>
    <g transform="translate(-48 -1622)">
      <circle id="Ellipse_10-166" data-name="Ellipse 10" cx="4" cy="4" r="4" transform="translate(336 1874)" fill="#707070"/>
    </g>
    <g transform="translate(-24 -1622)">
      <circle id="Ellipse_10-167" data-name="Ellipse 10" cx="4" cy="4" r="4" transform="translate(336 1874)" fill="#707070"/>
    </g>
    <g transform="translate(0 -1622)">
      <circle id="Ellipse_10-168" data-name="Ellipse 10" cx="4" cy="4" r="4" transform="translate(336 1874)" fill="#707070"/>
    </g>
    <g transform="translate(24 -1622)">
      <circle id="Ellipse_10-169" data-name="Ellipse 10" cx="4" cy="4" r="4" transform="translate(336 1874)" fill="#707070"/>
    </g>
    <g transform="translate(48 -1622)">
      <circle id="Ellipse_10-170" data-name="Ellipse 10" cx="4" cy="4" r="4" transform="translate(336 1874)" fill="#707070"/>
    </g>
    <g transform="translate(-336 -1594)">
      <circle id="Ellipse_10-171" data-name="Ellipse 10" cx="4" cy="4" r="4" transform="translate(336 1874)" fill="#707070"/>
    </g>
    <g transform="translate(-312 -1594)">
      <circle id="Ellipse_10-172" data-name="Ellipse 10" cx="4" cy="4" r="4" transform="translate(336 1874)" fill="#707070"/>
    </g>
    <g transform="translate(-288 -1594)">
      <circle id="Ellipse_10-173" data-name="Ellipse 10" cx="4" cy="4" r="4" transform="translate(336 1874)" fill="#707070"/>
    </g>
    <g transform="translate(-264 -1594)">
      <circle id="Ellipse_10-174" data-name="Ellipse 10" cx="4" cy="4" r="4" transform="translate(336 1874)" fill="#707070"/>
    </g>
    <g transform="translate(-240 -1594)">
      <circle id="Ellipse_10-175" data-name="Ellipse 10" cx="4" cy="4" r="4" transform="translate(336 1874)" fill="#707070"/>
    </g>
    <g transform="translate(-216 -1594)">
      <circle id="Ellipse_10-176" data-name="Ellipse 10" cx="4" cy="4" r="4" transform="translate(336 1874)" fill="#707070"/>
    </g>
    <g transform="translate(-192 -1594)">
      <circle id="Ellipse_10-177" data-name="Ellipse 10" cx="4" cy="4" r="4" transform="translate(336 1874)" fill="#707070"/>
    </g>
    <g transform="translate(-168 -1594)">
      <circle id="Ellipse_10-178" data-name="Ellipse 10" cx="4" cy="4" r="4" transform="translate(336 1874)" fill="#707070"/>
    </g>
    <g transform="translate(-144 -1594)">
      <circle id="Ellipse_10-179" data-name="Ellipse 10" cx="4" cy="4" r="4" transform="translate(336 1874)" fill="#707070"/>
    </g>
    <g transform="translate(-120 -1594)">
      <circle id="Ellipse_10-180" data-name="Ellipse 10" cx="4" cy="4" r="4" transform="translate(336 1874)" fill="#707070"/>
    </g>
    <g transform="translate(-96 -1594)">
      <circle id="Ellipse_10-181" data-name="Ellipse 10" cx="4" cy="4" r="4" transform="translate(336 1874)" fill="#707070"/>
    </g>
    <g transform="translate(-72 -1594)">
      <circle id="Ellipse_10-182" data-name="Ellipse 10" cx="4" cy="4" r="4" transform="translate(336 1874)" fill="#707070"/>
    </g>
    <g transform="translate(-48 -1594)">
      <circle id="Ellipse_10-183" data-name="Ellipse 10" cx="4" cy="4" r="4" transform="translate(336 1874)" fill="#707070"/>
    </g>
    <g transform="translate(-24 -1594)">
      <circle id="Ellipse_10-184" data-name="Ellipse 10" cx="4" cy="4" r="4" transform="translate(336 1874)" fill="#707070"/>
    </g>
    <g transform="translate(0 -1594)">
      <circle id="Ellipse_10-185" data-name="Ellipse 10" cx="4" cy="4" r="4" transform="translate(336 1874)" fill="#707070"/>
    </g>
    <g transform="translate(24 -1594)">
      <circle id="Ellipse_10-186" data-name="Ellipse 10" cx="4" cy="4" r="4" transform="translate(336 1874)" fill="#707070"/>
    </g>
    <g transform="translate(48 -1594)">
      <circle id="Ellipse_10-187" data-name="Ellipse 10" cx="4" cy="4" r="4" transform="translate(336 1874)" fill="#707070"/>
    </g>
    <g transform="translate(-336 -1566)">
      <circle id="Ellipse_10-188" data-name="Ellipse 10" cx="4" cy="4" r="4" transform="translate(336 1874)" fill="#707070"/>
    </g>
    <g transform="translate(-312 -1566)">
      <circle id="Ellipse_10-189" data-name="Ellipse 10" cx="4" cy="4" r="4" transform="translate(336 1874)" fill="#707070"/>
    </g>
    <g transform="translate(-288 -1566)">
      <circle id="Ellipse_10-190" data-name="Ellipse 10" cx="4" cy="4" r="4" transform="translate(336 1874)" fill="#707070"/>
    </g>
    <g transform="translate(-264 -1566)">
      <circle id="Ellipse_10-191" data-name="Ellipse 10" cx="4" cy="4" r="4" transform="translate(336 1874)" fill="#707070"/>
    </g>
    <g transform="translate(-240 -1566)">
      <circle id="Ellipse_10-192" data-name="Ellipse 10" cx="4" cy="4" r="4" transform="translate(336 1874)" fill="#707070"/>
    </g>
    <g transform="translate(-216 -1566)">
      <circle id="Ellipse_10-193" data-name="Ellipse 10" cx="4" cy="4" r="4" transform="translate(336 1874)" fill="#707070"/>
    </g>
    <g transform="translate(-192 -1566)">
      <circle id="Ellipse_10-194" data-name="Ellipse 10" cx="4" cy="4" r="4" transform="translate(336 1874)" fill="#707070"/>
    </g>
    <g transform="translate(-168 -1566)">
      <circle id="Ellipse_10-195" data-name="Ellipse 10" cx="4" cy="4" r="4" transform="translate(336 1874)" fill="#707070"/>
    </g>
    <g transform="translate(-144 -1566)">
      <circle id="Ellipse_10-196" data-name="Ellipse 10" cx="4" cy="4" r="4" transform="translate(336 1874)" fill="#707070"/>
    </g>
    <g transform="translate(-120 -1566)">
      <circle id="Ellipse_10-197" data-name="Ellipse 10" cx="4" cy="4" r="4" transform="translate(336 1874)" fill="#707070"/>
    </g>
    <g transform="translate(-96 -1566)">
      <circle id="Ellipse_10-198" data-name="Ellipse 10" cx="4" cy="4" r="4" transform="translate(336 1874)" fill="#707070"/>
    </g>
    <g transform="translate(-72 -1566)">
      <circle id="Ellipse_10-199" data-name="Ellipse 10" cx="4" cy="4" r="4" transform="translate(336 1874)" fill="#707070"/>
    </g>
    <g transform="translate(-48 -1566)">
      <circle id="Ellipse_10-200" data-name="Ellipse 10" cx="4" cy="4" r="4" transform="translate(336 1874)" fill="#707070"/>
    </g>
    <g transform="translate(-24 -1566)">
      <circle id="Ellipse_10-201" data-name="Ellipse 10" cx="4" cy="4" r="4" transform="translate(336 1874)" fill="#707070"/>
    </g>
    <g transform="translate(0 -1566)">
      <circle id="Ellipse_10-202" data-name="Ellipse 10" cx="4" cy="4" r="4" transform="translate(336 1874)" fill="#707070"/>
    </g>
    <g transform="translate(24 -1566)">
      <circle id="Ellipse_10-203" data-name="Ellipse 10" cx="4" cy="4" r="4" transform="translate(336 1874)" fill="#707070"/>
    </g>
    <g transform="translate(48 -1566)">
      <circle id="Ellipse_10-204" data-name="Ellipse 10" cx="4" cy="4" r="4" transform="translate(336 1874)" fill="#707070"/>
    </g>
    <g transform="translate(-336 -1538)">
      <circle id="Ellipse_10-205" data-name="Ellipse 10" cx="4" cy="4" r="4" transform="translate(336 1874)" fill="#707070"/>
    </g>
    <g transform="translate(-312 -1538)">
      <circle id="Ellipse_10-206" data-name="Ellipse 10" cx="4" cy="4" r="4" transform="translate(336 1874)" fill="#707070"/>
    </g>
    <g transform="translate(-288 -1538)">
      <circle id="Ellipse_10-207" data-name="Ellipse 10" cx="4" cy="4" r="4" transform="translate(336 1874)" fill="#707070"/>
    </g>
    <g transform="translate(-264 -1538)">
      <circle id="Ellipse_10-208" data-name="Ellipse 10" cx="4" cy="4" r="4" transform="translate(336 1874)" fill="#707070"/>
    </g>
    <g transform="translate(-240 -1538)">
      <circle id="Ellipse_10-209" data-name="Ellipse 10" cx="4" cy="4" r="4" transform="translate(336 1874)" fill="#707070"/>
    </g>
    <g transform="translate(-216 -1538)">
      <circle id="Ellipse_10-210" data-name="Ellipse 10" cx="4" cy="4" r="4" transform="translate(336 1874)" fill="#707070"/>
    </g>
    <g transform="translate(-192 -1538)">
      <circle id="Ellipse_10-211" data-name="Ellipse 10" cx="4" cy="4" r="4" transform="translate(336 1874)" fill="#707070"/>
    </g>
    <g transform="translate(-168 -1538)">
      <circle id="Ellipse_10-212" data-name="Ellipse 10" cx="4" cy="4" r="4" transform="translate(336 1874)" fill="#707070"/>
    </g>
    <g transform="translate(-144 -1538)">
      <circle id="Ellipse_10-213" data-name="Ellipse 10" cx="4" cy="4" r="4" transform="translate(336 1874)" fill="#707070"/>
    </g>
    <g transform="translate(-120 -1538)">
      <circle id="Ellipse_10-214" data-name="Ellipse 10" cx="4" cy="4" r="4" transform="translate(336 1874)" fill="#707070"/>
    </g>
    <g transform="translate(-96 -1538)">
      <circle id="Ellipse_10-215" data-name="Ellipse 10" cx="4" cy="4" r="4" transform="translate(336 1874)" fill="#707070"/>
    </g>
    <g transform="translate(-72 -1538)">
      <circle id="Ellipse_10-216" data-name="Ellipse 10" cx="4" cy="4" r="4" transform="translate(336 1874)" fill="#707070"/>
    </g>
    <g transform="translate(-48 -1538)">
      <circle id="Ellipse_10-217" data-name="Ellipse 10" cx="4" cy="4" r="4" transform="translate(336 1874)" fill="#707070"/>
    </g>
    <g transform="translate(-24 -1538)">
      <circle id="Ellipse_10-218" data-name="Ellipse 10" cx="4" cy="4" r="4" transform="translate(336 1874)" fill="#707070"/>
    </g>
    <g transform="translate(0 -1538)">
      <circle id="Ellipse_10-219" data-name="Ellipse 10" cx="4" cy="4" r="4" transform="translate(336 1874)" fill="#707070"/>
    </g>
    <g transform="translate(24 -1538)">
      <circle id="Ellipse_10-220" data-name="Ellipse 10" cx="4" cy="4" r="4" transform="translate(336 1874)" fill="#707070"/>
    </g>
    <g transform="translate(48 -1538)">
      <circle id="Ellipse_10-221" data-name="Ellipse 10" cx="4" cy="4" r="4" transform="translate(336 1874)" fill="#707070"/>
    </g>
    <g transform="translate(-336 -1510)">
      <circle id="Ellipse_10-222" data-name="Ellipse 10" cx="4" cy="4" r="4" transform="translate(336 1874)" fill="#707070"/>
    </g>
    <g transform="translate(-312 -1510)">
      <circle id="Ellipse_10-223" data-name="Ellipse 10" cx="4" cy="4" r="4" transform="translate(336 1874)" fill="#707070"/>
    </g>
    <g transform="translate(-288 -1510)">
      <circle id="Ellipse_10-224" data-name="Ellipse 10" cx="4" cy="4" r="4" transform="translate(336 1874)" fill="#707070"/>
    </g>
    <g transform="translate(-264 -1510)">
      <circle id="Ellipse_10-225" data-name="Ellipse 10" cx="4" cy="4" r="4" transform="translate(336 1874)" fill="#707070"/>
    </g>
    <g transform="translate(-240 -1510)">
      <circle id="Ellipse_10-226" data-name="Ellipse 10" cx="4" cy="4" r="4" transform="translate(336 1874)" fill="#707070"/>
    </g>
    <g transform="translate(-216 -1510)">
      <circle id="Ellipse_10-227" data-name="Ellipse 10" cx="4" cy="4" r="4" transform="translate(336 1874)" fill="#707070"/>
    </g>
    <g transform="translate(-192 -1510)">
      <circle id="Ellipse_10-228" data-name="Ellipse 10" cx="4" cy="4" r="4" transform="translate(336 1874)" fill="#707070"/>
    </g>
    <g transform="translate(-168 -1510)">
      <circle id="Ellipse_10-229" data-name="Ellipse 10" cx="4" cy="4" r="4" transform="translate(336 1874)" fill="#707070"/>
    </g>
    <g transform="translate(-144 -1510)">
      <circle id="Ellipse_10-230" data-name="Ellipse 10" cx="4" cy="4" r="4" transform="translate(336 1874)" fill="#707070"/>
    </g>
    <g transform="translate(-120 -1510)">
      <circle id="Ellipse_10-231" data-name="Ellipse 10" cx="4" cy="4" r="4" transform="translate(336 1874)" fill="#707070"/>
    </g>
    <g transform="translate(-96 -1510)">
      <circle id="Ellipse_10-232" data-name="Ellipse 10" cx="4" cy="4" r="4" transform="translate(336 1874)" fill="#707070"/>
    </g>
    <g transform="translate(-72 -1510)">
      <circle id="Ellipse_10-233" data-name="Ellipse 10" cx="4" cy="4" r="4" transform="translate(336 1874)" fill="#707070"/>
    </g>
    <g transform="translate(-48 -1510)">
      <circle id="Ellipse_10-234" data-name="Ellipse 10" cx="4" cy="4" r="4" transform="translate(336 1874)" fill="#707070"/>
    </g>
    <g transform="translate(-24 -1510)">
      <circle id="Ellipse_10-235" data-name="Ellipse 10" cx="4" cy="4" r="4" transform="translate(336 1874)" fill="#707070"/>
    </g>
    <g transform="translate(0 -1510)">
      <circle id="Ellipse_10-236" data-name="Ellipse 10" cx="4" cy="4" r="4" transform="translate(336 1874)" fill="#707070"/>
    </g>
    <g transform="translate(24 -1510)">
      <circle id="Ellipse_10-237" data-name="Ellipse 10" cx="4" cy="4" r="4" transform="translate(336 1874)" fill="#707070"/>
    </g>
    <g transform="translate(48 -1510)">
      <circle id="Ellipse_10-238" data-name="Ellipse 10" cx="4" cy="4" r="4" transform="translate(336 1874)" fill="#707070"/>
    </g>
  </g>
</svg>
